<svg xmlns="http://www.w3.org/2000/svg" xmlns:xlink="http://www.w3.org/1999/xlink" viewBox="0 0 276.92 276.89"><defs><style>.cls-1,.cls-3{fill:#fff;}.cls-1{opacity:0.65;}.cls-2,.cls-4,.cls-7,.cls-8{opacity:0.44;}.cls-2{fill:url(#linear-gradient);}.cls-5{fill:url(#linear-gradient-2);}.cls-20,.cls-6{fill:#edebeb;}.cls-19,.cls-7{stroke:#edebeb;}.cls-19,.cls-20,.cls-7{stroke-miterlimit:10;stroke-width:0.25px;}.cls-7{fill:url(#linear-gradient-3);}.cls-8{fill:url(#linear-gradient-4);}.cls-9{fill:url(#linear-gradient-5);}.cls-10{fill:url(#linear-gradient-6);}.cls-11{fill:url(#linear-gradient-7);}.cls-12{fill:url(#linear-gradient-8);}.cls-13{fill:url(#linear-gradient-9);}.cls-14{fill:url(#linear-gradient-10);}.cls-15{fill:url(#linear-gradient-11);}.cls-16{fill:url(#linear-gradient-12);}.cls-17{fill:url(#linear-gradient-13);}.cls-18{fill:url(#linear-gradient-14);}.cls-19,.cls-21{fill:none;}.cls-20{stroke:url(#linear-gradient-15);}.cls-22{fill:url(#linear-gradient-16);}.cls-23{fill:url(#linear-gradient-17);}.cls-24{fill:#940a0a;}</style><linearGradient id="linear-gradient" x1="65.9" y1="192.59" x2="242.4" y2="147.09" gradientUnits="userSpaceOnUse"><stop offset="0" stop-color="#1c0000"/><stop offset="0.69" stop-color="#1c0000" stop-opacity="0.93"/><stop offset="0.86" stop-color="#1c0000" stop-opacity="0.8"/></linearGradient><linearGradient id="linear-gradient-2" x1="136.46" y1="140.88" x2="143.05" y2="140.88" xlink:href="#linear-gradient"/><linearGradient id="linear-gradient-3" x1="139.71" y1="133.88" x2="139.84" y2="133.88" xlink:href="#linear-gradient"/><linearGradient id="linear-gradient-4" x1="138.15" y1="130.84" x2="141.2" y2="130.84" xlink:href="#linear-gradient"/><linearGradient id="linear-gradient-5" x1="168.76" y1="254.71" x2="174.86" y2="254.71" xlink:href="#linear-gradient"/><linearGradient id="linear-gradient-6" x1="89.4" y1="217.87" x2="163.63" y2="217.87" xlink:href="#linear-gradient"/><linearGradient id="linear-gradient-7" x1="156.61" y1="236.71" x2="167.58" y2="236.71" xlink:href="#linear-gradient"/><linearGradient id="linear-gradient-8" x1="159.59" y1="234.71" x2="164.02" y2="234.71" xlink:href="#linear-gradient"/><linearGradient id="linear-gradient-9" x1="160.18" y1="240.85" x2="164.48" y2="240.85" xlink:href="#linear-gradient"/><linearGradient id="linear-gradient-10" x1="164.63" y1="238.83" x2="167.58" y2="238.83" xlink:href="#linear-gradient"/><linearGradient id="linear-gradient-11" x1="156.62" y1="234.6" x2="159.57" y2="234.6" xlink:href="#linear-gradient"/><linearGradient id="linear-gradient-12" x1="161.19" y1="234.97" x2="165.14" y2="234.97" xlink:href="#linear-gradient"/><linearGradient id="linear-gradient-13" x1="161.11" y1="236.71" x2="163.04" y2="236.71" xlink:href="#linear-gradient"/><linearGradient id="linear-gradient-14" x1="163.4" y1="246.6" x2="171.49" y2="246.6" xlink:href="#linear-gradient"/><linearGradient id="linear-gradient-15" x1="161.96" y1="239.97" x2="165.89" y2="239.97" xlink:href="#linear-gradient"/><linearGradient id="linear-gradient-16" x1="60.88" y1="173.99" x2="237.38" y2="128.49" xlink:href="#linear-gradient"/><linearGradient id="linear-gradient-17" x1="225.01" y1="81.6" x2="90.31" y2="176.96" gradientUnits="userSpaceOnUse"><stop offset="0" stop-color="#940a0a" stop-opacity="0.8"/><stop offset="0.49" stop-color="#940a0a" stop-opacity="0.91"/><stop offset="1" stop-color="#940a0a"/></linearGradient></defs><title>portrait-paper</title><g id="Layer_2" data-name="Layer 2"><g id="Layer_1-2" data-name="Layer 1"><path class="cls-1" d="M276.92,138.45c0,76.34-62.13,138.44-138.45,138.44S0,214.79,0,138.45,62.12,0,138.47,0,276.92,62.1,276.92,138.45Z"/><path class="cls-2" d="M214.75,122.9c-2.88-5.39-6-10.67-8.62-16.17a18.53,18.53,0,0,1-1.56-4.3,6.08,6.08,0,0,0,2.45-1.58A3.2,3.2,0,0,0,208,99a5.32,5.32,0,0,1-2.15,1.46l-.44.07c-.42.07-.78.11-1.08.14a8.55,8.55,0,0,1,1.73-5.53,4.33,4.33,0,0,0,.64-3.38A172,172,0,0,0,203,74.5c-2.06-7.29-5.51-13.78-12.13-18.08l-.23-.14a1.72,1.72,0,0,1,.05.36,4.93,4.93,0,0,1-.19,1.3,24.68,24.68,0,0,1-.3,4,31.25,31.25,0,0,1-8.53,17.5,11.55,11.55,0,0,0-.88,1c-1.81,1.29-4.93,5.43-4.95,5.45h0c-5.35,4.26-9.35,8-14.57,12.45-.42.35-1,.89-1.72,1.52-1.84,1.67-7,8.41-9.66,14.15-.72,1.54-.83,6.65-.83,9.48a5.35,5.35,0,0,1,.54.43c1.86,1.71,2.12,5.57,0,7.22a9.47,9.47,0,0,1-5.77,2.16c-3,.12-4.75-2.46-5.1-5.1-.14-1.09-.23-2.18-.31-3.27a11.77,11.77,0,0,1-6.42.22,10.89,10.89,0,0,1-6.38-4.9,10.53,10.53,0,0,1-1.35-5.94h0a2.44,2.44,0,0,1,0-.27c0-.11,0-.21,0-.31a11.48,11.48,0,0,1-.42-6.7,10.76,10.76,0,0,1,4.9-6.37A10.13,10.13,0,0,1,134,99.2c-.3-.22-.59-.43-.87-.61a1,1,0,0,0-.3-.14c-.29-.09-.57-.16-.86-.23a14.9,14.9,0,0,0-3-.34,19.26,19.26,0,0,0-4.26.42,16.85,16.85,0,0,0-2.55.73c-4.12,1.58-11.85,9.45-5.92,23.42h0c7.8,8.44,7.5,15.68,7.71,17.87v.18s.17,5.49-.28,7.08c-2.07,7.31,7.56,18.84,7.56,18.84-7.75.29-10.18-2.09-10.18-2.08a7,7,0,0,0,1.94,5.23l-7.64-.59a3.42,3.42,0,0,0-3.37,1.79c-.65,1.35-.59,3.48,2.27,6.62a28.24,28.24,0,0,1-12.07-6.65c-.1-.09-.21-.22-.33-.35a.12.12,0,0,1-.16-.06c0,.33,0,.67,0,1,.37,10.26-3.35,19.15-9.89,26.59-4,4.59-7.07,10.43-13.73,12.86a6.67,6.67,0,0,0,2.5.65c4.84-.2,8.8,2.41,13.2,3.89,12.68,4.25,45,38.83,61.46,57.12a135.23,135.23,0,0,0,40.18-11.13c-4.11-14.49-22.61-48.53-32.44-54.77-1.28-.81-1.27-2-.91-3.34,1.17-4.2,1.94-8.5,3.31-12.65,2.11-6.36,5.79-11,12.78-12.21,1.1-.19,2.17-.47,3.27-.64A76,76,0,0,0,196.5,174a9.85,9.85,0,0,0,5.23-14.43c-1.34-2.16-.82-4.42,1.49-5.57,2-1,2.44-2.46,1.74-4.46-.33-.92-.56-1.74.44-2.59,2.78-2.39,2.85-3.62.68-6.67-1.48-2.09-1.25-3.92.58-5.74a6.43,6.43,0,0,1,3.38-1.45C215.07,131.91,217.16,127.41,214.75,122.9Z"/><path class="cls-3" d="M213.29,120.56c-2.88-5.39-6-10.67-8.62-16.16a18.28,18.28,0,0,1-1.55-4.31,7.15,7.15,0,0,1-.22-1.74,8.6,8.6,0,0,1,1.73-5.53,4.31,4.31,0,0,0,.64-3.38,172,172,0,0,0-3.74-17.28c-2.06-7.28-5.51-13.78-12.13-18.08l-.23-.14a1.72,1.72,0,0,1,.05.37A4.91,4.91,0,0,1,189,55.6a24.51,24.51,0,0,1-.3,4,31.27,31.27,0,0,1-8.52,17.5,9,9,0,0,0-.88,1c-1.82,1.29-4.94,5.43-5,5.45h0C169,87.78,165,91.55,159.8,96c-.42.35-1,.89-1.72,1.52-1.83,1.67-7,8.41-9.66,14.15-1,2.16-.82,11.42-.82,11.42s-1.78-1.84-2.72-3a1.08,1.08,0,0,1-.3-.27,59.17,59.17,0,0,1-8.3-15c0-.11-1.76-5.78-1.79-5.9l-.59-.8a10.1,10.1,0,0,0-2.28-1.93,1.38,1.38,0,0,0-.3-.14l-.86-.23a15.58,15.58,0,0,0-3-.34,19.26,19.26,0,0,0-4.26.42,17.9,17.9,0,0,0-2.54.73c-4.13,1.58-11.85,9.45-5.93,23.42h0c7.8,8.45,7.5,15.68,7.71,17.87v.19s.17,5.48-.29,7.07c-2.07,7.31,7.63,20,7.63,20-7.75.29-10.25-3.24-10.25-3.23a7.06,7.06,0,0,0,1.94,5.23l-7.63-.59a3.42,3.42,0,0,0-3.38,1.8c-.65,1.34-1.26,4.29,1.59,7.43a36.8,36.8,0,0,1-11.39-7.46c-.1-.1-.21-.23-.32-.36a.13.13,0,0,1-.17-.06c0,.34,0,.67,0,1,.37,10.26-3.34,19.15-9.89,26.59-4,4.59-7.07,10.43-13.73,12.86a6.71,6.71,0,0,0,2.5.65c4.84-.19,8.8,2.41,13.2,3.89,12.68,4.26,45,38.83,61.46,57.12A135.23,135.23,0,0,0,193.9,259c-4.11-14.49-22.6-48.53-32.44-54.76-1.28-.81-1.27-2.06-.91-3.35,1.18-4.19,1.94-8.5,3.32-12.65,2.1-6.36,5.78-11,12.78-12.21,1.09-.18,2.17-.47,3.26-.64A75.78,75.78,0,0,0,195,171.68a9.85,9.85,0,0,0,5.23-14.43,3.64,3.64,0,0,1,1.49-5.57c2-1,2.45-2.46,1.74-4.45-.33-.93-.56-1.74.44-2.6,2.78-2.39,2.85-3.61.68-6.67-1.48-2.09-1.24-3.91.58-5.74a6.43,6.43,0,0,1,3.38-1.45C213.61,129.57,215.7,125.07,213.29,120.56Z"/><g class="cls-4"><path class="cls-5" d="M143,139.09a.13.13,0,0,0-.08-.11,3.48,3.48,0,0,1-.39-.28,1.3,1.3,0,0,1-.22-.19.13.13,0,0,1,0-.09c0-.24-.05-.48-.08-.73a5.3,5.3,0,0,0-.1-.55c0-.11-.11-.17-.18-.25h0s0,0-.05,0a.77.77,0,0,0,0-.15.13.13,0,0,0-.06-.11l-.19-.12a3.8,3.8,0,0,0-1.13-.44c-.13,0-.14,0-.14.11a1.66,1.66,0,0,1,0,.22c-.06,0-.06,0-.13,0l-.3.19a.11.11,0,0,1-.13,0l-.38-.24a.1.1,0,0,1-.06-.1c0-.06,0-.12,0-.18s0-.06-.07-.05h-.14a10.32,10.32,0,0,0-1.22.63c-.13.12-.1.07-.13.26s0,.1-.07.11l0,0-.14.13a.13.13,0,0,0-.06.11l0,.3c0,.27,0,.55,0,.82s0,.71,0,1.07v0s0,0,0,.05,0,.05,0,.08a1.06,1.06,0,0,1-.09.25,3.87,3.87,0,0,1-.38.61,1.51,1.51,0,0,0-.3.67,2,2,0,0,0,.07,1c.16.46.33.91.52,1.36s.34.75.54,1.11c0,.06.07.12.11.17a13.12,13.12,0,0,0,2.2,1,10.72,10.72,0,0,0,1.88-1.08,6.29,6.29,0,0,0,.6-1.29,12.22,12.22,0,0,0,.38-1.31,10.38,10.38,0,0,0,.24-1.66c0-.27,0-.55,0-.82S143,139.27,143,139.09Z"/></g><path class="cls-6" d="M139.29,136.27l0,.5.09,1.34.13,1.88.07,1.06,0,.27v.12a.5.5,0,0,0,0,.13,1.22,1.22,0,0,0,.1.24.61.61,0,0,0,.07.1.33.33,0,0,0,.06.06h0l0,0,.07-.09a1.59,1.59,0,0,0,.13-.22s0-.08,0-.12,0,0,0-.06v-.06l0-.27c0-.36,0-.72,0-1.06s0-.68,0-1,0-.61,0-.89v-1.06a2.62,2.62,0,0,1,0-.27v-.37c0,.08,0,.21,0,.37a2.13,2.13,0,0,1,0,.27c0,.09,0,.2,0,.31s0,.48,0,.75,0,.58,0,.9,0,.65,0,1,0,.7,0,1.07v.31s0,0,0,0a.19.19,0,0,1,0,.07.78.78,0,0,1-.05.14.89.89,0,0,1-.14.25.4.4,0,0,1-.1.12.26.26,0,0,1-.09.05h-.12l-.08-.05-.06-.06a.57.57,0,0,1-.08-.13,1.23,1.23,0,0,1-.12-.26l0-.15a.17.17,0,0,1,0-.07v-.34c0-.37-.05-.72-.06-1.07s0-.67,0-1,0-.61,0-.89c0-.55,0-1,0-1.33,0-.16,0-.29,0-.38Z"/><path class="cls-6" d="M139.41,138.78h.07l.07,0,.14.05a2.1,2.1,0,0,1,.26.13h-.08a1.15,1.15,0,0,1,.25-.12l.13-.05.06,0,.08,0,0,.05-.05,0a.44.44,0,0,1-.11.09,1.88,1.88,0,0,1-.23.16l0,0,0,0-.24-.15-.12-.09,0-.06Z"/><path class="cls-6" d="M139.45,139.46h.07l.06,0,.13,0,.13,0,.12.06h-.08l.24-.1.13,0,.06,0h.07l0,0-.05.05-.1.08-.22.13,0,0,0,0-.12-.06-.11-.07-.11-.08s0,0-.05-.05Z"/><path class="cls-6" d="M139.49,140.23l.12,0,.12,0,.11,0,.11,0h-.08l.12-.06.12,0,.12,0,.07,0h.07s0,0-.05.05l0,.05a.39.39,0,0,1-.1.08l-.11.08-.11.06,0,0,0,0a.3.3,0,0,1-.11-.06l-.1-.06-.09-.08A.76.76,0,0,1,139.49,140.23Z"/><path class="cls-6" d="M137.65,139.79l.29.15.3.15.29.16.29.15.29.16.29.16.57.33h-.08l.27-.17.27-.16.27-.17.14-.08.13-.08.28-.17.28-.15.28-.16.28-.15-.26.19-.26.18-.26.18-.27.18-.13.09-.13.09-.27.18-.27.17-.27.17,0,0,0,0-.57-.33-.28-.17-.29-.18-.28-.17-.27-.18-.28-.18Z"/><path class="cls-6" d="M137.72,137v2.2c0,.12,0,.25,0,.37v.37c0,.12,0,.24,0,.36V141c0,.12,0,.24,0,.36l0,.37,0,.36c0,.12,0,.24,0,.36v.09l0,.09,0,.18v0l-.11.31v.38c0,.14,0,.27,0,.41s0,.27,0,.4,0,.27,0,.41c0-.14,0-.27,0-.41s0-.27,0-.4,0-.27,0-.41v-.4h0l.1-.32v0l0-.18,0-.19c0-.12,0-.24-.05-.36l0-.37,0-.37c0-.12,0-.24,0-.37s0-.24,0-.37v-1.1c0-.12,0-.25,0-.37v-.37c0-.12,0-.24,0-.36l0-.37c0-.12,0-.25,0-.37S137.7,137.23,137.72,137Z"/><path class="cls-6" d="M141.88,136.87c0,.13,0,.25.05.38s0,.24,0,.37,0,.25.05.37,0,.25,0,.37l0,.38,0,.37,0,.38v.37c0,.13,0,.25,0,.38s0,.25,0,.37V141l0,.38c0,.12,0,.25,0,.37v.19a1.23,1.23,0,0,0,0,.19l0,.19,0,.18-.06.38v0l.15.39v0h0l-.07.33-.07.33c0,.11,0,.22-.07.33s-.05.22-.08.33c0-.11,0-.22,0-.34s0-.22,0-.33l.05-.33.05-.34v0c-.05-.13-.11-.25-.16-.38v0l.05-.36c0-.07,0-.13,0-.19v-.19a1.1,1.1,0,0,0,0-.18v-.19c0-.12,0-.24,0-.37l0-.37v-.75c0-.12,0-.25,0-.37v-.75c0-.13,0-.25,0-.37s0-.25,0-.38,0-.25,0-.37l0-.38Z"/><path class="cls-6" d="M142.29,138.49v.06s0,.08,0,.15,0,.14,0,.23a2.36,2.36,0,0,1,0,.31c0,.11,0,.23,0,.36s0,.26,0,.4v.21a1.55,1.55,0,0,0,0,.22v.22a1.77,1.77,0,0,1,0,.23v.45c0,.14,0,.29,0,.43s0,.27,0,.4v.09l0,.1,0,.17q0,.16-.06.3l0,.12,0,.11-.06.19,0-.2,0-.11,0-.12v-.14a.25.25,0,0,0,0-.08v-.84c0-.14,0-.28,0-.43v-.44c0-.15,0-.3,0-.45v-1.94Z"/><path class="cls-6" d="M137.32,139.46l0,.16c0,.1,0,.25.05.42l0,.28,0,.32.07.68.07.68c0,.11,0,.22,0,.32a.68.68,0,0,0,0,.14s0,.09,0,.14a.5.5,0,0,1,0,.12s0,.08,0,.11,0,.07,0,.1,0,.06,0,.08l0,.07s0,0,0,0v0l0,0-.05-.11-.06-.17c0-.07,0-.15-.07-.24s0-.18-.06-.28,0-.2-.06-.31,0-.22-.05-.33,0-.24,0-.35l0-.35c0-.12,0-.23,0-.34s0-.22,0-.32v-.71C137.32,139.52,137.32,139.46,137.32,139.46Z"/><path class="cls-6" d="M140,145h0l-.52-.31a.08.08,0,0,1,0-.06c0-.21,0-.41,0-.61a.12.12,0,0,1,0-.07l.5-.3H140l.53.3s0,.05,0,.07c0,.2,0,.4,0,.61a.11.11,0,0,1,0,.05Zm.22-.5a.07.07,0,0,0,0-.06L140,144s0,0-.06,0l-.21.4s0,.06,0,.06Zm.08-.06,0,0,.14-.33c0-.05,0-.07-.06-.07l-.3,0s-.05,0-.05,0,0,0,0,0,.11.19.17.29Zm-.66,0s0,0,0,0l.21-.39c0-.05,0-.06,0-.05l-.3,0c-.07,0-.08,0-.05.09l.12.3Zm.35.49v0s0,0,0,0l.18-.24s0-.06,0-.06h-.4s-.06,0,0,.06l.2.25Zm-.41-1h0l.29,0s.09-.12,0-.16h0Zm.77,0v0l-.3-.17h0a.11.11,0,0,0,0,.16Zm-.89.26h0c0,.11,0,.23,0,.34a0,0,0,0,0,0,0c.05,0,.11-.06.09-.12Zm1.05,0h0a1.89,1.89,0,0,0-.11.25.08.08,0,0,0,.07.13s.05,0,.05,0Zm-.38.65v0l.29-.17s0,0,0,0-.11-.06-.14,0Zm-.3,0v0l-.16-.2a.09.09,0,0,0-.14,0s0,.05,0,.05Z"/><line class="cls-7" x1="139.71" y1="130.89" x2="139.84" y2="136.87"/><circle class="cls-8" cx="139.68" cy="130.84" r="1.53"/><g class="cls-4"><path class="cls-9" d="M174.46,253.21a3,3,0,1,0-1.15,4.15A3,3,0,0,0,174.46,253.21Zm-5.41,1.26,4-2.25.62,1.11-4,2.24Zm1.54,2.72-.62-1.1,4-2.25.63,1.1Z"/><path class="cls-10" d="M161.74,204a87.65,87.65,0,0,1,1.76,16.32,90.83,90.83,0,0,1-1.25,16.38l0,.15h-.15l-5.33-.18-2.67-.09c-.89-.08-1.77-.19-2.65-.29-1.77-.21-3.55-.37-5.31-.61l-5.25-1a80.32,80.32,0,0,1-20-7.28,78,78,0,0,1-17.26-12.47c-1.29-1.24-2.58-2.46-3.77-3.78s-2.4-2.63-3.56-4c-2.29-2.71-4.47-5.53-6.65-8.32,2.23,2.76,4.45,5.54,6.79,8.21,1.17,1.33,2.36,2.65,3.6,3.92s2.5,2.52,3.78,3.74A77.76,77.76,0,0,0,121,227.05,83.67,83.67,0,0,0,141,234.23l5.21,1c1.75.25,3.52.43,5.28.64.88.1,1.76.22,2.64.3l2.66.11,5.31.21-.17.15a90.1,90.1,0,0,0,1.34-16.32A88.48,88.48,0,0,0,161.74,204Z"/><path class="cls-11" d="M158.52,239.58a5.91,5.91,0,0,0,1.77-.34,13.88,13.88,0,0,0,4.64-2.63,6.72,6.72,0,0,0,1.45-1.65,1.32,1.32,0,0,0,.22-.7.3.3,0,0,0-.16-.27,1.31,1.31,0,0,0-.61-.15,5.65,5.65,0,0,0-1.91.34.31.31,0,0,1-.28,0c-.28-.18-.57-.33-.86-.48,0,0-.09,0-.08-.07s.05,0,.08,0a9.13,9.13,0,0,1,2.28-.65,3.26,3.26,0,0,1,1.52.08,1.35,1.35,0,0,1,.95,1.69,3.52,3.52,0,0,1-.73,1.41,11.38,11.38,0,0,1-2.73,2.4,14.92,14.92,0,0,1-3.22,1.61,6.85,6.85,0,0,1-2.45.48,2.09,2.09,0,0,1-1.24-.35,1.39,1.39,0,0,1-.5-1.48,4.1,4.1,0,0,1,.88-1.58,10,10,0,0,1,1.49-1.42s.06-.07.11-.05,0,.07,0,.11c0,.34,0,.7,0,1a.16.16,0,0,1-.08.15,7.47,7.47,0,0,0-1,1.1,2.8,2.8,0,0,0-.42.78.85.85,0,0,0,0,.23.35.35,0,0,0,.25.37A1.71,1.71,0,0,0,158.52,239.58Z"/><path class="cls-12" d="M159.59,236.68a13.58,13.58,0,0,1,.47-3.75,5,5,0,0,1,.82-1.73,1.64,1.64,0,0,1,.92-.65,1.32,1.32,0,0,1,1.27.38,3.66,3.66,0,0,1,.8,1.25c0,.11.08.22.13.33s0,.14-.08.17-.46.14-.69.21-.13,0-.16-.08a3.94,3.94,0,0,0-.51-1l-.08-.09a.46.46,0,0,0-.79,0,3.46,3.46,0,0,0-.55,1,10.08,10.08,0,0,0-.47,2.08,16.91,16.91,0,0,0-.1,2.66,7.93,7.93,0,0,0,.09,1c0,.09,0,.13-.09.16-.24.09-.48.17-.73.24-.08,0-.11,0-.12-.08-.07-.5-.11-1-.13-1.48Z"/><path class="cls-13" d="M162.07,242.92a1.53,1.53,0,0,1-1.1-.58,4.2,4.2,0,0,1-.78-1.46c0-.07,0-.11.07-.13l.71-.22c.09,0,.13,0,.16.08a4.07,4.07,0,0,0,.38.82,1.48,1.48,0,0,0,.29.36.4.4,0,0,0,.59,0,2.34,2.34,0,0,0,.51-.78,6.6,6.6,0,0,0,.45-1.43.36.36,0,0,1,.19-.26c.29-.15.56-.33.84-.51,0,0,.05,0,.08,0s0,0,0,.08a9.88,9.88,0,0,1-.61,2.39,3.78,3.78,0,0,1-.66,1.09A1.5,1.5,0,0,1,162.07,242.92Z"/><path class="cls-14" d="M165.72,240.57a5.08,5.08,0,0,1-1-.1c-.1,0-.13-.05-.1-.15s.11-.47.15-.7.07-.13.18-.11a3.47,3.47,0,0,0,1.16,0h.05c.38-.1.5-.31.38-.68a3.39,3.39,0,0,0-.57-1l-.09-.1c-.05,0,0-.09,0-.13s.38-.34.56-.53c.05,0,.09-.07.14,0a3.81,3.81,0,0,1,.92,1.68,1.36,1.36,0,0,1-1,1.66,3.09,3.09,0,0,1-.8.1Z"/><path class="cls-15" d="M156.62,234.31a1.35,1.35,0,0,1,.94-1.32,3.23,3.23,0,0,1,1.38-.11c.18,0,.35.05.53.07s.11.05.09.14c-.06.24-.12.49-.17.74,0,.08,0,.1-.13.09a4.4,4.4,0,0,0-.89-.08,1.78,1.78,0,0,0-.52.1.34.34,0,0,0-.25.38,1.39,1.39,0,0,0,.24.68,3.78,3.78,0,0,0,.44.61c.06.07.05.11,0,.17a6.89,6.89,0,0,0-.56.52s-.07.07-.12,0a4.14,4.14,0,0,1-.92-1.6A1.46,1.46,0,0,1,156.62,234.31Z"/><path class="cls-16" d="M161.19,234.44c0-.28.11-.54.16-.81,0-.1.08-.08.15,0a13.47,13.47,0,0,1,1.62.79,15.66,15.66,0,0,1,1.95,1.29c.09.07.09.11,0,.2s-.34.32-.52.47-.14.08-.22,0a14.44,14.44,0,0,0-2.86-1.69l-.22-.1S161.17,234.49,161.19,234.44Z"/><path class="cls-17" d="M162.07,237.68a1,1,0,0,1,0-1.94,1,1,0,0,1,1,1A1,1,0,0,1,162.07,237.68Z"/><path class="cls-18" d="M165.68,243.76a.11.11,0,0,0-.08,0,2.56,2.56,0,0,0-.46.33c-.11.1-.21.22-.31.33a4.42,4.42,0,0,0-.46.67,3.65,3.65,0,0,0-.38,1.17,3,3,0,0,0,0,1,3.41,3.41,0,0,0,.13.53c.07.22.18.41.26.61a3.42,3.42,0,0,0,.33.51c.08.1.15.21.23.3a1.81,1.81,0,0,0,.24.24,3.24,3.24,0,0,1,.4.43.05.05,0,0,1,0,0c0,.08,0,.17,0,.2a.19.19,0,0,1-.19,0,2.44,2.44,0,0,1-.31-.22,5.79,5.79,0,0,1-.64-.57,4.68,4.68,0,0,1-.53-.71,5.31,5.31,0,0,1-.3-.64,2.93,2.93,0,0,1-.18-.66,4.11,4.11,0,0,1-.07-.78,3.26,3.26,0,0,1,.07-.7,4,4,0,0,1,.35-1,4.52,4.52,0,0,1,.34-.57,4.6,4.6,0,0,1,.41-.47,3.75,3.75,0,0,1,.71-.55c.19-.12.39-.2.58-.31a2.7,2.7,0,0,1,.48-.16,3.77,3.77,0,0,1,1-.14,2.73,2.73,0,0,1,.7.07,4.21,4.21,0,0,1,.61.16,3.35,3.35,0,0,1,.67.3c.12.08.25.13.37.21a4.28,4.28,0,0,1,.66.55,3.69,3.69,0,0,1,.52.66,3.89,3.89,0,0,1,.45,1,5.79,5.79,0,0,1,.16.83,3.8,3.8,0,0,1-.11,1.26,4.21,4.21,0,0,1-.51,1.22,3.91,3.91,0,0,1-.72.85c-.14.12-.29.22-.43.32a4.62,4.62,0,0,1-.83.42,2,2,0,0,1-.83.16,3.87,3.87,0,0,1-.49-.05c-.1,0-.19-.06-.29-.09a3.92,3.92,0,0,1-.36-.16,1.65,1.65,0,0,1-.57-.44,2.33,2.33,0,0,1-.35-.64,4.18,4.18,0,0,1-.17-1.31c0-.13,0-.26,0-.39s0-.38,0-.58,0-.64,0-1,0-.76,0-1.14,0-.49,0-.73A1.29,1.29,0,0,1,165.68,243.76Zm4.7,4.26,0,0a3.31,3.31,0,0,0,.31-.9,3.53,3.53,0,0,0,0-.56,3,3,0,0,0-.1-.78,3.73,3.73,0,0,0-.32-.84,2.63,2.63,0,0,0-.53-.74s-.06-.09-.11-.12-.19-.13-.28-.21a2.36,2.36,0,0,0-.48-.29,3.11,3.11,0,0,0-.54-.18,2.86,2.86,0,0,0-.82-.12,3,3,0,0,0-.73.05,1.36,1.36,0,0,0-.39.12s0,0,0,0,0,0,0,0a1,1,0,0,1,.36.32c.12.12.22.26.33.39l.48.56.45.53c.13.16.28.31.42.48l.55.65.48.57a5.59,5.59,0,0,1,.45.52.7.7,0,0,0,.13.16A1.6,1.6,0,0,1,170.38,248Zm-1.2,1.34a.67.67,0,0,0,.18-.11c.14-.14.31-.24.44-.39l.24-.29s0-.06,0-.06a.42.42,0,0,1-.16,0,1.38,1.38,0,0,1-.27-.14,3.34,3.34,0,0,0-.44-.17,7.81,7.81,0,0,0-.82-.26,7.71,7.71,0,0,0-1-.17c-.22,0-.33,0-.32.27v.07c0,.3,0,.6.05.9s0,.35,0,.52a.26.26,0,0,0,.18.24,1.77,1.77,0,0,0,.31.08,1.22,1.22,0,0,0,.38,0,3.08,3.08,0,0,0,.73-.22A3,3,0,0,0,169.18,249.36Zm-.79-2.18,0,0-.18-.22c-.11-.12-.2-.26-.31-.38s-.35-.4-.52-.61l-.26-.31s0-.05-.07,0,0,0,0,.08v.52c0,.33,0,.66,0,1,0,.09,0,.1.09.08a2.43,2.43,0,0,1,1,0,.78.78,0,0,0,.22,0S168.41,247.23,168.39,247.18Z"/><path class="cls-19" d="M169.32,249.69c.45.85.89,1.7,1.33,2.58"/><path class="cls-20" d="M162.07,236.71l3.72,6.53"/></g><path class="cls-21" d="M136.34,102.43c0-.11-1.76-5.78-1.8-5.9l-.58-.8a10.28,10.28,0,0,0-2.27-1.93l-.31-.14-.86-.23a15.67,15.67,0,0,0-3-.34,19.66,19.66,0,0,0-4.32.43,19.26,19.26,0,0,1,4.26-.42,14.85,14.85,0,0,1,3,.35,8.37,8.37,0,0,1,.86.23,1,1,0,0,1,.3.13,10.1,10.1,0,0,1,2.28,1.93l.59.81c0,.11,1.75,5.78,1.79,5.89a59,59,0,0,0,8.3,15,1.13,1.13,0,0,0,.3.28l-.38-.46A59.34,59.34,0,0,1,136.34,102.43Z"/><path class="cls-22" d="M113.73,160.33s0,.07,0,.06S113.75,160.33,113.73,160.33Z"/><path class="cls-23" d="M113.73,160.33s0,.07,0,.06S113.75,160.33,113.73,160.33Z"/><path class="cls-21" d="M136.34,102.43c0-.11-1.76-5.78-1.8-5.9l-.58-.8a10.28,10.28,0,0,0-2.27-1.93l-.31-.14-.86-.23a15.67,15.67,0,0,0-3-.34,19.66,19.66,0,0,0-4.32.43,19.26,19.26,0,0,1,4.26-.42,14.85,14.85,0,0,1,3,.35,8.37,8.37,0,0,1,.86.23,1,1,0,0,1,.3.13,10.1,10.1,0,0,1,2.28,1.93l.59.81c0,.11,1.75,5.78,1.79,5.89a59,59,0,0,0,8.3,15,1.13,1.13,0,0,0,.3.28l-.38-.46A59.34,59.34,0,0,1,136.34,102.43Z"/><path class="cls-24" d="M112.75,172.61c-2.85-3.14-2.92-5.27-2.27-6.61a3.45,3.45,0,0,1,3.38-1.8l7.63.59a7.06,7.06,0,0,1-1.94-5.23s2.43,2.37,10.18,2.08c0,0-9.63-11.53-7.56-18.83.46-1.59.29-7.08.29-7.08v-.18c-.21-2.2.09-9.43-7.71-17.88h0c-5.92-14,1.8-21.84,5.93-23.42a19.38,19.38,0,0,1,2.54-.73,19.66,19.66,0,0,1,4.32-.43,15.67,15.67,0,0,1,3,.34l.86.23.31.14A10.28,10.28,0,0,1,134,95.73l.58.8c0,.12,1.76,5.79,1.8,5.9a59.34,59.34,0,0,0,8.16,14.79l.38.46c.94,1.1,2.72,2.94,2.72,2.94s-.19-9.25.82-11.42c2.69-5.74,7.83-12.48,9.66-14.14.7-.64,1.3-1.18,1.72-1.53,5.22-4.42,9.23-8.19,14.57-12.45h0s3.13-4.16,5-5.44a8.15,8.15,0,0,1,.88-1,31.3,31.3,0,0,0,8.52-17.51,24.51,24.51,0,0,0,.3-4,4.85,4.85,0,0,0,.19-1.29,1.72,1.72,0,0,0-.05-.37v0a.47.47,0,0,1-.21-.38c0-.16-.06-.3-.08-.45a9.48,9.48,0,0,0-.65-1.25,10,10,0,0,0-3.88-4.75c-.27-.28-.56-.56-.86-.85a58.8,58.8,0,0,0-7.82-6.18,57.83,57.83,0,0,1-16.78,36c-6.7,6.63-15.34,12.51-25.07,12.18-14.24-.47-32-1.73-38.37,14.21a25.32,25.32,0,0,0,0,18.94c2.5,5.93,8.29,11.42,15,9.66,2-2,2.3-5-.69-6.44.36.18,1.57-1.32,1.95-1.13,3.91,2,2.08,5.47-.57,7.38l.1,0-.4.23a7.84,7.84,0,0,1-.83.49l-.11,0-.58.33.31-.21c-4.22,1.91-8.79.2-12-3-8.84-8.73-7.49-24.82,1.13-33.18,5.46-5.31,13.35-7.94,20.75-8.61,6.79-.62,13.66.79,20.4.08,8-.84,15-7.3,20.07-13.17a57.92,57.92,0,0,0,13.86-35,81,81,0,0,0-13.48-6.7l-.1.06c-1.07,19.79-15.14,35.87-33.36,43-9.93,3.87-30,9.09-34.71-4.5C91,64.66,90.82,60.34,94,57.83l-.2.1.26-.15,0,0c2-1.55,4.45-2,6.61-.39-.15-.11-1.14.87-1.3.75a4.2,4.2,0,0,0-4.6-.66l0,0c-6,6.15.63,16.62,7.72,18.19,8.13,1.8,18.14-.71,25.72-3.65C146,65.12,158.55,48.3,159,29.27l0-.07c-1.41-.52-2.87-1-4.38-1.49l-.09,0A50.3,50.3,0,0,1,128.06,51c-4.62,1.76-10.5,3.63-15.39,2A7.9,7.9,0,0,1,108,41.68c1.5-2.87,4.49-4.57,7.36-5.81-.49.22-.9.61-1.4.8l-1.23.58c-4.31,3.27-6.56,9.78-1.44,13.63,4.74,3.56,11.62,1.67,16.71-.09,11.39-3.94,20.42-12.58,25.76-23.26l0-.1c-1.93-.58-3.93-1.12-6-1.61l-.07,0c-1.8,2.39-5.8,3.51-8.34,4-1.11.23-3.85.94-4.73-.1s.09-2.08.87-2.63h0a5.5,5.5,0,0,1,1-.57l.27-.15a.94.94,0,0,0-.12.09,4.69,4.69,0,0,1,.75-.24c-.45.1-.81.61-1.26.73-.58.76-.75,1.84.24,2.36s2.8,0,3.83-.14c2.48-.43,5.6-1.09,6.73-3.49l0-.1c-11.31-2.54-24.94-3.56-41-1.72l-.31,0a1.11,1.11,0,0,0-.38.18,108.51,108.51,0,0,0-12,4.13c-4.35,1.65-10,7.49-14,9.75-7,4-10.94,3.76-13,11.77s-2.38,16.14-5.51,23.76c-1.32,3.2-2.62,6.38-5.51,8.52a3.31,3.31,0,0,1-2.55.74,4.26,4.26,0,0,1-2.17-1.44c-1.51-1.74-1-3.33.53-4.84.8-.77,3.18-.75,2-2.58a2.73,2.73,0,0,0-1.8-1.27,4.63,4.63,0,0,0-3.4.62,13,13,0,0,0-6.12,14.27A16,16,0,0,0,49,97.74c.34.21.36.2.72.39a17.55,17.55,0,0,0,12.4-.63h0c4.21-3.39,4.62-10.67-2.22-11,.41,0,.87-.77,1.3-.75,7.24.33,6.29,8.35,1.55,11.45l.15-.06-.3.17-.08.05c-.17.11-.35.2-.53.3l-.37.22,0,0c-3.62,1.88-7.63,2.27-12,2,0,0-.21,0-.94,0a13.83,13.83,0,0,1-2.05-.23,12,12,0,0,1-8-7.16,1.34,1.34,0,0,1-.07.18c0-.07-.07-.14-.11-.22-3.93,9.43,2.82,19.51,14.87,22.36a1.18,1.18,0,0,1,.93,1.34c-.54,3.47-.82,14.17,10.92,21.19a4.85,4.85,0,0,0,1.59.59c2.22.52,4.86-.26,7.23-.18h0a11.67,11.67,0,0,0,6.42-3.81c1.6-1.68,3.15-4.17,1.08-6.17-1.47-1.42-4.64-1.72-6.48-.82-.74.36-1.83,1.53-1.4,2.48s2.13.53,2.93.22c-.46.18-.83.58-1.29.75-.81.31-2.45.86-2.94-.22-.29-.65.28-1.57.7-2a6.92,6.92,0,0,1,1.73-1.19c2.3-1.31,6-2,8,.06,3.42,3.3-2.45,7.8-5,9.38a17.81,17.81,0,0,1-3,1.5,2.12,2.12,0,0,1,1,.57.89.89,0,0,1,.2.37c.13.39.25.78.39,1.16a6.15,6.15,0,0,1,0,1c-.13,1.37-.77,1.44-1.5,1.3l-.73-.17a2.29,2.29,0,0,0-.76-.08c.86,3.58,2.17,5.52,4.45,6a6.17,6.17,0,0,0,1.66.18,1.23,1.23,0,0,1,1.07.62c2.14,3.57,5.86,8.83,11.23,9.79a9.45,9.45,0,0,0,1.3.18,11.19,11.19,0,0,0,3.56-.39,1.22,1.22,0,0,1,1.51.85,4.21,4.21,0,0,1,.11,1,9,9,0,0,0,1.5,4.64,5.6,5.6,0,0,0,.57.77,4,4,0,0,0,.32.36A28.29,28.29,0,0,0,112.75,172.61Z"/></g></g></svg>